<?xml version="1.0" encoding="utf-8"?>
<!-- Generator: Adobe Illustrator 24.1.2, SVG Export Plug-In . SVG Version: 6.00 Build 0)  -->
<svg version="1.1" id="Capa_1" xmlns="http://www.w3.org/2000/svg" xmlns:xlink="http://www.w3.org/1999/xlink" x="0px" y="0px"
	 viewBox="0 0 595.3 387" style="enable-background:new 0 0 595.3 387;" xml:space="preserve">
<style type="text/css">
	.st0{fill:#009EE2;}
	.st1{fill:#1D70B7;}
</style>
<g>
	<path class="st0" d="M123.6,228.6c6.2-5.1,12.8-10,19.9-14.5c-13.8-9.5-22.2-25.4-21.4-43.2c1.2-25.8,22-46.4,48.2-47.9l15.9-1
		l0.7-10.4c3.9-60.7,32.6-74,53.8-78.6c33.7-7.4,59.4,7.5,81.1,46.9l5,9.1l9.7-3.7c20.5-7.9,38.5-6.4,55.3,4.5
		c16.9,11,25.7,27,27,48.7l0.6,9.8l9.7,1.3c1.5,0.2,3.1,0.4,4.6,0.5c3,0.3,5.8,0.7,8.5,1.2c19.5,3.8,31.2,19.3,29.9,39.6
		c-0.5,7.2-3.4,13.9-8,19.3c6.9,4.2,13.5,8.7,19.7,13.4c6.8-8.8,11.2-19.5,11.9-31.2c2.1-31.9-18-58.4-49-64.4
		c-1.8-0.3-3.6-0.6-5.3-0.8c-3.8-24.5-16.1-43.7-36.6-57.2c-20.5-13.5-43.1-16.8-67.1-10C311.4,17.5,277.1,0.7,235.6,9.8
		c-41.7,9.2-65.7,39.4-71.5,90c-36.1,4.3-64,33.6-65.7,70C97.3,193.1,107.1,214.4,123.6,228.6z"/>
	<path class="st0" d="M154.5,253.1c-0.2-0.5,0.1-0.9,0.5-1.3c8.3-8.8,16.5-15,25.8-20.8c27.6-17.2,58.1-25.1,90.1-29.1
		c25.7-3.2,65.6-1,67.9,0.5c0.9,0.6-18.7,1.4-23.6,2.3c-4,0.7-8,1.5-11.9,2.4c-29.4,7-56.9,18.3-79.3,39.2
		c-6.2,5.8-12.1,7.6-20.1,7.3c-15.9-0.5-29.9-0.2-47.1-0.1C156.3,253.5,154.7,253.6,154.5,253.1z"/>
	<path class="st0" d="M301.3,228.6c74-18.2,129.3,10.8,162.1,41.1c0,0.3,1,1.2,1,1.5c-0.1,0.4-1.2,0.3-1.3,0.7c-8.5,0-17,0-25.5,0
		c-13.2,0-26.4,0-39.6,0c-2.6,0-5.1,0.2-7.5-1.7C361.7,247.6,341.5,235.4,301.3,228.6z"/>
</g>
<path class="st1" d="M14.2,254.2c0.4,0.5,1,0.7,0.9,1.4c-0.1,0.4-0.3,0.6-1.1,0.6"/>
<g>
	<path class="st0" d="M43.4,347.3c-0.9-1.2-2.2-2.1-3.8-2.9c-1.6-0.7-3.2-1.1-4.8-1.1c-1.7,0-3.3,0.3-4.6,1
		c-1.4,0.7-2.6,1.6-3.6,2.8c-1,1.2-1.8,2.5-2.3,4c-0.6,1.5-0.8,3.1-0.8,4.8c0,1.7,0.3,3.3,0.8,4.8c0.5,1.5,1.3,2.8,2.3,4
		c1,1.2,2.2,2.1,3.7,2.7c1.4,0.7,3,1,4.8,1c1.6,0,3.3-0.3,4.9-0.9c1.6-0.6,2.9-1.5,3.9-2.7l9,11c-2,2-4.7,3.5-7.9,4.6
		c-3.2,1.1-6.6,1.7-10.3,1.7c-3.9,0-7.5-0.6-10.9-1.8c-3.4-1.2-6.3-2.9-8.8-5.2c-2.5-2.3-4.4-5-5.9-8.2c-1.4-3.2-2.1-6.9-2.1-11
		c0-4,0.7-7.6,2.1-10.9c1.4-3.2,3.4-6,5.9-8.2c2.5-2.3,5.4-4,8.8-5.2c3.4-1.2,7-1.8,10.8-1.8c1.8,0,3.5,0.2,5.3,0.5
		c1.7,0.3,3.4,0.8,5,1.3c1.6,0.6,3.1,1.3,4.4,2.1c1.3,0.8,2.5,1.7,3.5,2.7L43.4,347.3z"/>
	<path class="st0" d="M108.8,355.8c0,4-0.7,7.6-2.2,10.9c-1.4,3.3-3.4,6-5.9,8.3c-2.5,2.3-5.4,4-8.7,5.3c-3.3,1.2-6.8,1.9-10.6,1.9
		c-3.7,0-7.2-0.6-10.5-1.9c-3.3-1.2-6.2-3-8.7-5.3c-2.5-2.3-4.4-5-5.9-8.3c-1.4-3.3-2.2-6.9-2.2-10.9c0-4,0.7-7.6,2.2-10.9
		c1.4-3.2,3.4-6,5.9-8.2c2.5-2.2,5.4-3.9,8.7-5.1c3.3-1.2,6.8-1.8,10.5-1.8c3.8,0,7.3,0.6,10.6,1.8c3.3,1.2,6.2,2.9,8.7,5.1
		c2.5,2.2,4.5,5,5.9,8.2C108,348.2,108.8,351.8,108.8,355.8z M93.2,355.8c0-1.6-0.3-3.1-0.8-4.6c-0.5-1.5-1.3-2.8-2.3-4
		c-1-1.2-2.2-2.1-3.7-2.8c-1.4-0.7-3.1-1.1-5-1.1c-1.9,0-3.6,0.4-5,1.1c-1.4,0.7-2.6,1.7-3.6,2.8c-1,1.2-1.7,2.5-2.2,4
		c-0.5,1.5-0.7,3.1-0.7,4.6c0,1.6,0.2,3.1,0.7,4.6s1.2,2.9,2.2,4.1c1,1.2,2.2,2.2,3.7,2.9c1.4,0.7,3.1,1.1,5,1.1
		c1.9,0,3.6-0.4,5-1.1c1.4-0.7,2.7-1.7,3.7-2.9c1-1.2,1.7-2.6,2.2-4.1C92.9,358.9,93.2,357.4,93.2,355.8z"/>
	<path class="st0" d="M148.8,380.6v-26.8c0-1.4-0.1-2.7-0.3-3.9c-0.2-1.2-0.6-2.4-1.1-3.3c-0.5-1-1.3-1.7-2.2-2.3
		c-1-0.6-2.2-0.8-3.6-0.8c-1.4,0-2.7,0.3-3.8,0.8c-1.1,0.6-2,1.3-2.7,2.3c-0.7,1-1.3,2.1-1.6,3.4c-0.4,1.3-0.5,2.6-0.5,4v26.7h-16.3
		v-49.2h15.7v6.8h0.2c0.6-1.1,1.4-2.1,2.3-3.1c1-1,2.1-1.9,3.4-2.6c1.3-0.7,2.7-1.3,4.2-1.8c1.5-0.5,3.1-0.7,4.8-0.7
		c3.3,0,6.1,0.6,8.4,1.8c2.3,1.2,4.2,2.7,5.6,4.6c1.4,1.9,2.4,4,3.1,6.5c0.6,2.4,0.9,4.9,0.9,7.3v30.4H148.8z"/>
	<path class="st0" d="M203.8,345.9c-1.3-1.2-2.9-2.3-4.6-3.2c-1.8-0.9-3.7-1.3-5.6-1.3c-1.5,0-2.9,0.3-4.2,0.9
		c-1.3,0.6-1.9,1.6-1.9,3.1c0,1.4,0.7,2.4,2.1,3c1.4,0.6,3.7,1.3,6.9,2c1.8,0.4,3.7,1,5.6,1.7c1.9,0.7,3.6,1.7,5.1,2.9
		c1.5,1.2,2.7,2.6,3.7,4.3c0.9,1.7,1.4,3.8,1.4,6.1c0,3.1-0.6,5.7-1.9,7.8c-1.3,2.1-2.9,3.9-4.9,5.2c-2,1.3-4.3,2.3-6.8,2.9
		c-2.5,0.6-5,0.9-7.5,0.9c-4,0-7.9-0.6-11.8-1.9c-3.9-1.3-7.1-3.2-9.6-5.7l9.1-9.6c1.4,1.6,3.2,2.9,5.3,3.9c2.1,1.1,4.3,1.6,6.7,1.6
		c1.3,0,2.6-0.3,3.9-0.9c1.3-0.6,1.9-1.7,1.9-3.3c0-1.5-0.8-2.6-2.4-3.4c-1.6-0.7-4-1.5-7.4-2.3c-1.7-0.4-3.4-0.9-5.1-1.6
		c-1.7-0.7-3.2-1.5-4.6-2.7c-1.3-1.1-2.5-2.5-3.3-4.1c-0.9-1.6-1.3-3.6-1.3-5.9c0-3,0.6-5.5,1.9-7.6c1.2-2.1,2.9-3.8,4.8-5.1
		c2-1.3,4.2-2.3,6.6-2.9c2.4-0.6,4.8-0.9,7.2-0.9c3.7,0,7.3,0.6,10.8,1.7c3.5,1.2,6.5,2.9,8.9,5.2L203.8,345.9z"/>
	<path class="st0" d="M239,343.5v18.8c0,2.3,0.4,4,1.3,5.2c0.9,1.2,2.5,1.7,4.8,1.7c0.8,0,1.6-0.1,2.5-0.2c0.9-0.1,1.6-0.3,2.2-0.6
		l0.2,11.8c-1.1,0.4-2.5,0.7-4.2,1c-1.7,0.3-3.4,0.4-5.1,0.4c-3.3,0-6.1-0.4-8.3-1.2c-2.2-0.8-4-2-5.4-3.6c-1.3-1.5-2.3-3.4-2.9-5.5
		s-0.9-4.5-0.9-7.2v-20.8h-7.9v-12h7.8v-12.9H239v12.9h11.5v12H239z"/>
	<path class="st0" d="M289.9,344.7c-0.7-0.2-1.4-0.3-2.1-0.4c-0.7-0.1-1.4-0.1-2-0.1c-2.2,0-4,0.4-5.5,1.2c-1.5,0.8-2.7,1.7-3.6,2.9
		c-0.9,1.1-1.5,2.3-1.9,3.6c-0.4,1.3-0.6,2.5-0.6,3.4v25.2H258v-49.1h15.6v7.1h0.2c1.2-2.5,3-4.6,5.3-6.2c2.3-1.6,5-2.4,8-2.4
		c0.7,0,1.3,0,1.9,0.1c0.6,0.1,1.1,0.2,1.5,0.3L289.9,344.7z"/>
	<path class="st0" d="M329.4,380.6v-6.8h-0.2c-0.6,1.1-1.4,2.2-2.3,3.2c-1,1-2.1,1.8-3.4,2.6c-1.3,0.7-2.7,1.3-4.2,1.8
		c-1.5,0.5-3.2,0.7-4.9,0.7c-3.3,0-6.1-0.6-8.3-1.8c-2.3-1.2-4.1-2.7-5.5-4.6c-1.4-1.9-2.4-4-3.1-6.4c-0.6-2.4-0.9-4.9-0.9-7.4
		v-30.4h16.3v26.7c0,1.4,0.1,2.7,0.3,3.9c0.2,1.3,0.6,2.4,1.1,3.4c0.6,1,1.3,1.8,2.2,2.3c0.9,0.6,2.1,0.8,3.7,0.8
		c2.8,0,5-1.1,6.5-3.2c1.5-2.1,2.2-4.6,2.2-7.4v-26.6H345v49.2H329.4z"/>
	<path class="st0" d="M393.3,344.9c-1.1-1.8-2.7-3.2-4.9-4.4c-2.1-1.2-4.5-1.7-7-1.7c-2.7,0-5.1,0.5-7.3,1.4c-2.2,1-4,2.3-5.6,3.9
		c-1.5,1.7-2.7,3.7-3.6,5.9c-0.8,2.3-1.2,4.7-1.2,7.4c0,2.6,0.4,5.1,1.2,7.3c0.8,2.2,2,4.2,3.5,5.9c1.5,1.7,3.4,3,5.5,3.9
		c2.2,1,4.6,1.4,7.3,1.4c3,0,5.5-0.6,7.5-1.7c2-1.1,3.7-2.6,5-4.3l5,3.8c-2,2.4-4.4,4.4-7.3,5.8c-2.9,1.4-6.3,2.2-10.3,2.2
		c-3.8,0-7.1-0.6-10.2-1.8c-3-1.2-5.6-2.9-7.7-5.1c-2.1-2.2-3.8-4.7-5-7.7c-1.2-3-1.8-6.2-1.8-9.7c0-3.5,0.6-6.7,1.8-9.7
		c1.2-3,2.8-5.5,5-7.7c2.1-2.2,4.7-3.9,7.7-5.1c3-1.2,6.4-1.8,10.2-1.8c3.1,0,6.2,0.7,9.4,2c3.2,1.3,5.8,3.3,7.7,6L393.3,344.9z"/>
	<path class="st0" d="M413.9,380.6h-6.7V306h6.7V380.6z"/>
	<path class="st0" d="M475.3,357.5c0,3.5-0.6,6.7-1.8,9.7c-1.2,3-2.9,5.5-5.1,7.7c-2.2,2.2-4.8,3.9-7.8,5.1c-3,1.2-6.4,1.8-10,1.8
		c-3.6,0-6.8-0.6-9.9-1.8c-3-1.2-5.6-2.9-7.8-5.1c-2.2-2.2-3.9-4.7-5.1-7.7c-1.2-3-1.8-6.2-1.8-9.7c0-3.5,0.6-6.7,1.8-9.7
		c1.2-3,2.9-5.5,5.1-7.7c2.2-2.2,4.8-3.9,7.8-5.1c3-1.2,6.3-1.8,9.9-1.8c3.6,0,6.9,0.6,10,1.8c3,1.2,5.6,2.9,7.8,5.1
		c2.2,2.2,3.9,4.7,5.1,7.7C474.7,350.8,475.3,354,475.3,357.5z M468.2,357.5c0-2.6-0.4-5-1.2-7.3c-0.8-2.3-2-4.2-3.5-5.9
		c-1.5-1.7-3.4-3-5.5-4c-2.2-1-4.6-1.5-7.3-1.5c-2.7,0-5.1,0.5-7.3,1.5c-2.1,1-4,2.3-5.5,4c-1.5,1.7-2.7,3.7-3.5,5.9
		c-0.8,2.3-1.2,4.7-1.2,7.3c0,2.6,0.4,5,1.2,7.3c0.8,2.3,2,4.2,3.5,5.9c1.5,1.7,3.3,3,5.5,3.9c2.1,1,4.6,1.4,7.3,1.4
		c2.7,0,5.1-0.5,7.3-1.4c2.2-1,4-2.3,5.5-3.9c1.5-1.7,2.7-3.7,3.5-5.9C467.7,362.5,468.2,360,468.2,357.5z"/>
	<path class="st0" d="M520.8,380.6c-0.1-1.2-0.2-2.6-0.3-4.1c-0.1-1.5-0.1-2.8-0.1-3.8h-0.2c-1.3,2.7-3.5,4.9-6.4,6.6
		c-3,1.7-6.1,2.5-9.4,2.5c-5.9,0-10.3-1.7-13.2-5.2c-2.9-3.5-4.4-8.1-4.4-13.8v-28.3h6.7V360c0,2.4,0.2,4.6,0.6,6.6
		c0.4,2,1.1,3.7,2,5.1c1,1.4,2.2,2.5,3.8,3.3c1.6,0.8,3.6,1.2,6.1,1.2c1.8,0,3.5-0.4,5.2-1.1c1.7-0.7,3.2-1.8,4.5-3.3
		c1.3-1.5,2.4-3.4,3.2-5.6c0.8-2.3,1.2-5,1.2-8v-23.7h6.7v36c0,1.3,0,2.9,0.1,4.8c0.1,2,0.2,3.8,0.3,5.3H520.8z"/>
	<path class="st0" d="M580.1,372.8c-2,3-4.5,5.2-7.7,6.7c-3.2,1.5-6.4,2.3-9.8,2.3c-3.6,0-6.9-0.6-9.8-1.9c-2.9-1.2-5.4-3-7.5-5.1
		c-2.1-2.2-3.7-4.7-4.8-7.7c-1.2-3-1.7-6.2-1.7-9.6c0-3.4,0.6-6.6,1.7-9.6c1.1-3,2.8-5.5,4.8-7.7c2.1-2.2,4.6-3.9,7.5-5.1
		c2.9-1.2,6.2-1.9,9.8-1.9c3.4,0,6.6,0.8,9.8,2.3c3.2,1.5,5.7,3.8,7.7,6.9h0.2V306h6.7v74.6h-6.7v-7.8H580.1z M545.8,357.5
		c0,2.6,0.4,5,1.2,7.3c0.8,2.3,1.9,4.2,3.4,5.9c1.5,1.7,3.3,3,5.5,3.9c2.2,1,4.6,1.4,7.4,1.4c2.6,0,4.9-0.5,7.1-1.4
		c2.2-1,4-2.3,5.6-3.9c1.6-1.6,2.8-3.6,3.7-5.9c0.9-2.3,1.3-4.7,1.3-7.4c0-2.6-0.4-5.1-1.3-7.4c-0.9-2.3-2.1-4.2-3.7-5.9
		c-1.6-1.7-3.5-3-5.6-3.9c-2.2-1-4.5-1.4-7.1-1.4c-2.8,0-5.2,0.5-7.4,1.5c-2.2,1-4,2.3-5.5,4c-1.5,1.7-2.6,3.7-3.4,5.9
		C546.2,352.5,545.8,354.9,545.8,357.5z"/>
</g>
</svg>
